<svg xmlns="http://www.w3.org/2000/svg" viewBox="0 0 800 450">
  <defs>
    <linearGradient id="bg" x1="0" y1="0" x2="1" y2="1">
      <stop offset="0" stop-color="#34d399" stop-opacity="0.35"/>
      <stop offset="1" stop-color="#22c55e" stop-opacity="0.12"/>
    </linearGradient>
  </defs>
  <rect width="800" height="450" rx="28" fill="#0b1220"/>
  <rect x="24" y="24" width="752" height="402" rx="22" fill="url(#bg)"/>

  <text x="40" y="70" fill="#e5e7eb" font-family="ui-sans-serif, system-ui, -apple-system, Segoe UI" font-size="28" font-weight="800">Bench Press</text>
  <text x="40" y="102" fill="#9ca3af" font-family="ui-sans-serif, system-ui, -apple-system, Segoe UI" font-size="16">Placeholder image — replace with real photo/GIF at /public/exercises/bench_press.*</text>

  <!-- simple bench + bar icon -->
  <g transform="translate(80,145)" opacity="0.9">
    <rect x="0" y="200" width="420" height="18" rx="9" fill="#e5e7eb" opacity="0.18"/>
    <rect x="60" y="185" width="260" height="16" rx="8" fill="#e5e7eb" opacity="0.22"/>
    <rect x="75" y="130" width="230" height="14" rx="7" fill="#e5e7eb" opacity="0.22"/>

    <circle cx="120" cy="95" r="18" fill="#e5e7eb" opacity="0.20"/>
    <rect x="108" y="113" width="24" height="72" rx="12" fill="#e5e7eb" opacity="0.20"/>
    <path d="M96 150 L50 190" stroke="#e5e7eb" stroke-width="12" stroke-linecap="round" opacity="0.18"/>
    <path d="M144 150 L190 190" stroke="#e5e7eb" stroke-width="12" stroke-linecap="round" opacity="0.18"/>

    <rect x="240" y="65" width="260" height="10" rx="5" fill="#e5e7eb" opacity="0.25"/>
    <rect x="232" y="55" width="10" height="30" rx="5" fill="#e5e7eb" opacity="0.25"/>
    <rect x="500" y="55" width="10" height="30" rx="5" fill="#e5e7eb" opacity="0.25"/>
  </g>

  <g opacity="0.9">
    <rect x="40" y="360" width="720" height="50" rx="16" fill="#111827" opacity="0.5"/>
    <text x="60" y="392" fill="#d1fae5" font-family="ui-sans-serif, system-ui, -apple-system, Segoe UI" font-size="16" font-weight="700">Tip:</text>
    <text x="105" y="392" fill="#e5e7eb" font-family="ui-sans-serif, system-ui, -apple-system, Segoe UI" font-size="16">Put your real file here with the same name to auto-replace.</text>
  </g>
</svg>
