<svg xmlns="http://www.w3.org/2000/svg" viewBox="0 0 800 450">
  <defs>
    <linearGradient id="bg" x1="0" y1="0" x2="1" y2="1">
      <stop offset="0" stop-color="#fbbf24" stop-opacity="0.32"/>
      <stop offset="1" stop-color="#fb7185" stop-opacity="0.12"/>
    </linearGradient>
  </defs>
  <rect width="800" height="450" rx="28" fill="#0b1220"/>
  <rect x="24" y="24" width="752" height="402" rx="22" fill="url(#bg)"/>

  <text x="40" y="70" fill="#e5e7eb" font-family="ui-sans-serif, system-ui, -apple-system, Segoe UI" font-size="28" font-weight="800">Zone 2 Cardio</text>
  <text x="40" y="102" fill="#9ca3af" font-family="ui-sans-serif, system-ui, -apple-system, Segoe UI" font-size="16">Placeholder image — replace with real photo/GIF at /public/exercises/zone2_cardio.*</text>

  <!-- simple heart rate line -->
  <g transform="translate(60,150)" opacity="0.9">
    <rect x="0" y="150" width="680" height="6" rx="3" fill="#e5e7eb" opacity="0.16"/>
    <path d="M0 120 C60 90 90 150 150 120 C210 90 250 150 310 120 C370 90 410 150 470 120 C530 90 570 150 640 120" stroke="#f59e0b" stroke-width="10" fill="none" stroke-linecap="round"/>
    <circle cx="640" cy="120" r="8" fill="#f59e0b"/>
  </g>

  <g opacity="0.9">
    <rect x="40" y="360" width="720" height="50" rx="16" fill="#111827" opacity="0.5"/>
    <text x="60" y="392" fill="#fde68a" font-family="ui-sans-serif, system-ui, -apple-system, Segoe UI" font-size="16" font-weight="700">Tip:</text>
    <text x="105" y="392" fill="#e5e7eb" font-family="ui-sans-serif, system-ui, -apple-system, Segoe UI" font-size="16">Use a short looping GIF for best UX.</text>
  </g>
</svg>
